#N canvas 767 11 1920 970 12;
#X obj 102 5 inlet~;
#X obj 103 226 bp~;
#X obj 131 38 loadbang;
#X obj 131 62 f \$1;
#X obj 131 109 mtof;
#X floatatom 131 133 10 0 0 0 - - -;
#X obj 321 98 loadbang;
#X obj 321 122 f \$2;
#X floatatom 321 146 5 0 0 0 - - -;
#X obj 103 250 outlet~;
#X text 362 147 Q;
#X text 208 135 cutoff (Hz);
#X text 154 5 arg1: cutoff (pitch units) \, arg2: Q;
#X floatatom 131 86 5 0 0 0 - - -;
#X obj 199 38 inlet;
#X obj 390 98 inlet;
#X connect 0 0 1 0;
#X connect 1 0 9 0;
#X connect 2 0 3 0;
#X connect 3 0 13 0;
#X connect 4 0 5 0;
#X connect 5 0 1 1;
#X connect 6 0 7 0;
#X connect 7 0 8 0;
#X connect 8 0 1 2;
#X connect 13 0 4 0;
#X connect 14 0 13 0;
#X connect 15 0 8 0;
