#N canvas -11 -11 1920 970 12;
#X floatatom 136 108 0 0 0 0 - - -;
#X text 346 345 write to delay line;
#X obj 84 246 +~;
#X text 372 156 feedback gain;
#X obj 84 28 inlet~;
#X obj 136 60 loadbang;
#X obj 136 85 f \$1;
#X obj 136 129 delread~ \$0-delay 160;
#X obj 179 345 delwrite~ \$0-delay 2000;
#X obj 84 376 outlet~;
#X obj 331 60 loadbang;
#X obj 331 84 f \$2;
#X floatatom 331 155 5 0 0 0 - - -;
#X obj 136 206 *~;
#X text 166 109 delay time;
#X text 140 28 arg1: delay time (0-2000) \, arg2: feedback gain (0-1)
;
#X obj 331 128 / 100;
#X obj 206 60 inlet;
#X obj 400 59 inlet;
#X floatatom 331 108 5 0 0 0 - - -;
#X connect 0 0 7 0;
#X connect 2 0 8 0;
#X connect 2 0 9 0;
#X connect 4 0 2 0;
#X connect 5 0 6 0;
#X connect 6 0 0 0;
#X connect 7 0 13 0;
#X connect 10 0 11 0;
#X connect 11 0 19 0;
#X connect 12 0 13 1;
#X connect 13 0 2 1;
#X connect 16 0 12 0;
#X connect 17 0 0 0;
#X connect 18 0 19 0;
#X connect 19 0 16 0;
