#N canvas -11 -11 1920 970 12;
#X obj 76 119 fiddle~ 2048;
#X obj 130 146 unpack;
#X obj 130 170 moses 1;
#X obj 203 148 mtof;
#X obj 256 197 samplerate~;
#X obj 203 196 t f b;
#X obj 77 382 +~;
#X obj 219 254 +;
#X obj 203 171 expr 500/$f1;
#X obj 219 308 line~;
#X obj 219 283 pack 0 20;
#X obj 256 223 expr 2048000/$f1;
#X obj 76 49 inlet~;
#X obj 77 431 outlet~;
#X obj 87 90 delwrite~ \$0-G06-del 100;
#X obj 77 270 delread~ \$0-G06-del;
#X obj 95 356 vd~ \$0-G06-del;
#X connect 0 2 1 0;
#X connect 1 0 2 0;
#X connect 2 1 3 0;
#X connect 3 0 8 0;
#X connect 4 0 11 0;
#X connect 5 0 7 0;
#X connect 5 1 4 0;
#X connect 6 0 13 0;
#X connect 7 0 10 0;
#X connect 8 0 5 0;
#X connect 9 0 16 0;
#X connect 10 0 9 0;
#X connect 11 0 7 1;
#X connect 11 0 15 0;
#X connect 12 0 0 0;
#X connect 12 0 14 0;
#X connect 15 0 6 0;
#X connect 16 0 6 1;
