#N canvas -11 -11 1920 970 12;
#X obj 346 605 +~;
#X obj 355 414 delwrite~ G07-del 30;
#X obj 642 611 line~;
#X obj 488 618 *~;
#X obj 594 558 line~;
#X obj 451 560 *~;
#X obj 403 528 line~;
#X obj 364 525 *~;
#X obj 382 445 line~;
#X obj 346 445 *~;
#X obj 611 310 + 1;
#X obj 611 333 mod 4;
#X obj 576 321 f;
#X obj 620 384 random 1000;
#X obj 576 359 t f b;
#X floatatom 664 258 5 10 1000 0 - - -;
#X obj 576 466 route 0 1 2 3;
#X obj 364 479 delread~ G07-del 30;
#X obj 451 534 delread~ G07-del 17;
#X obj 488 592 delread~ G07-del 11;
#X obj 664 293 * 4;
#X obj 620 411 expr 2 * $f1/1000 - 0.7;
#X obj 576 282 metro 50;
#X obj 576 439 pack 0 0 200, f 13;
#X text 708 258 time constant (msec);
#X obj 570 245 loadbang;
#X obj 658 182 loadbang;
#X obj 658 206 f \$1;
#X obj 737 207 inlet;
#X obj 345 383 inlet~;
#X obj 347 645 outlet~;
#X text 398 383 arg1: time constant (ms);
#X connect 0 0 30 0;
#X connect 2 0 3 1;
#X connect 3 0 0 1;
#X connect 4 0 5 1;
#X connect 5 0 0 1;
#X connect 6 0 7 1;
#X connect 7 0 0 1;
#X connect 8 0 9 1;
#X connect 9 0 0 0;
#X connect 10 0 11 0;
#X connect 11 0 12 1;
#X connect 12 0 10 0;
#X connect 12 0 14 0;
#X connect 13 0 21 0;
#X connect 14 0 23 0;
#X connect 14 1 13 0;
#X connect 15 0 20 0;
#X connect 15 0 22 1;
#X connect 16 0 8 0;
#X connect 16 1 6 0;
#X connect 16 2 4 0;
#X connect 16 3 2 0;
#X connect 17 0 7 0;
#X connect 18 0 5 0;
#X connect 19 0 3 0;
#X connect 20 0 23 2;
#X connect 21 0 23 1;
#X connect 22 0 12 0;
#X connect 23 0 16 0;
#X connect 25 0 22 0;
#X connect 26 0 27 0;
#X connect 27 0 15 0;
#X connect 28 0 15 0;
#X connect 29 0 1 0;
#X connect 29 0 9 0;
