#N canvas -11 -11 1920 970 12;
#X obj 446 290 dac~;
#X obj 457 115 adc~;
#X obj 460 159 shakerAbs~ 50;
#X msg 538 108 5;
#X connect 1 0 2 0;
#X connect 2 0 0 0;
#X connect 2 0 0 1;
#X connect 3 0 2 1;
